<?xml version="1.0" standalone="no"?>
<!DOCTYPE svg PUBLIC "-//W3C//DTD SVG 20010904//EN"
 "http://www.w3.org/TR/2001/REC-SVG-20010904/DTD/svg10.dtd">
<svg version="1.0" xmlns="http://www.w3.org/2000/svg"
 width="415.000000pt" height="415.000000pt" viewBox="0 0 415.000000 415.000000"
 preserveAspectRatio="xMidYMid meet">
<metadata>
Created by potrace 1.14, written by Peter Selinger 2001-2017
</metadata>
<g transform="translate(0.000000,415.000000) scale(0.100000,-0.100000)"
fill="#000000" stroke="none">
<path d="M1935 4143 c-731 -54 -1373 -480 -1703 -1131 -119 -234 -176 -428
-217 -732 -7 -58 -7 -351 0 -410 38 -294 109 -529 230 -757 286 -541 789 -925
1385 -1056 288 -64 613 -63 906 1 221 49 486 162 684 293 128 84 301 229 391
329 267 293 454 694 514 1100 23 151 23 434 0 585 -100 670 -492 1229 -1085
1544 -220 116 -445 185 -738 226 -48 7 -306 12 -367 8z m59 -429 c7 -19 2 -18
-19 6 -16 17 -16 20 -3 15 9 -4 19 -13 22 -21z m-663 -766 c4 -14 3 -32 -2
-39 -5 -8 -9 -39 -9 -70 0 -69 -9 -119 -22 -119 -5 0 -6 5 -3 11 4 6 9 45 12
87 6 92 6 110 -2 140 -4 17 -2 23 7 20 6 -2 15 -16 19 -30z m-474 -1845 c-3
-10 -5 -4 -5 12 0 17 2 24 5 18 2 -7 2 -21 0 -30z m1033 -363 c0 -5 -4 -10 -9
-10 -6 0 -13 5 -16 10 -3 6 1 10 9 10 9 0 16 -4 16 -10z m373 -117 c-7 -2 -21
-2 -30 0 -10 3 -4 5 12 5 17 0 24 -2 18 -5z"/>
</g>
</svg>
